<svg width="25" height="25" viewBox="0 0 25 25" fill="none" xmlns="http://www.w3.org/2000/svg">
<g id="filter 1">
<g id="Group">
<path id="Vector" d="M21.1296 5.49087H9.97424C9.66755 4.57998 8.80598 3.92188 7.79299 3.92188C6.78001 3.92188 5.91843 4.57998 5.61174 5.49087H3.87048C3.46599 5.49087 3.13806 5.8188 3.13806 6.22329C3.13806 6.62778 3.46599 6.95571 3.87048 6.95571H5.61179C5.91848 7.8666 6.78005 8.52471 7.79304 8.52471C8.80603 8.52471 9.6676 7.8666 9.97429 6.95571H21.1296C21.5341 6.95571 21.862 6.62778 21.862 6.22329C21.862 5.8188 21.5341 5.49087 21.1296 5.49087ZM7.79299 7.05986C7.33172 7.05986 6.95642 6.68457 6.95642 6.22329C6.95642 5.76201 7.33172 5.38672 7.79299 5.38672C8.25427 5.38672 8.62957 5.76201 8.62957 6.22329C8.62957 6.68457 8.25427 7.05986 7.79299 7.05986Z" fill="#777777"/>
<path id="Vector_2" d="M21.1296 11.7663H19.3883C19.0816 10.8554 18.2199 10.1973 17.207 10.1973C16.1941 10.1973 15.3325 10.8554 15.0258 11.7663H3.87048C3.46599 11.7663 3.13806 12.0942 3.13806 12.4987C3.13806 12.9032 3.46599 13.2311 3.87048 13.2311H15.0258C15.3325 14.142 16.1941 14.8001 17.2071 14.8001C18.22 14.8001 19.0816 14.142 19.3883 13.2311H21.1296C21.5341 13.2311 21.862 12.9032 21.862 12.4987C21.862 12.0942 21.5341 11.7663 21.1296 11.7663ZM17.2071 13.3353C16.7458 13.3353 16.3705 12.96 16.3705 12.4987C16.3705 12.0374 16.7458 11.6621 17.2071 11.6621C17.6683 11.6621 18.0436 12.0374 18.0436 12.4987C18.0436 12.96 17.6683 13.3353 17.2071 13.3353Z" fill="#777777"/>
<path id="Vector_3" d="M21.1296 18.0436H13.1123C12.8056 17.1327 11.944 16.4746 10.931 16.4746C9.91804 16.4746 9.05647 17.1327 8.74978 18.0436H3.87048C3.46599 18.0436 3.13806 18.3715 3.13806 18.776C3.13806 19.1805 3.46599 19.5084 3.87048 19.5084H8.74978C9.05647 20.4193 9.91804 21.0774 10.931 21.0774C11.944 21.0774 12.8056 20.4193 13.1123 19.5084H21.1296C21.5341 19.5084 21.862 19.1805 21.862 18.776C21.862 18.3715 21.5341 18.0436 21.1296 18.0436ZM10.931 19.6126C10.4698 19.6126 10.0945 19.2374 10.0945 18.7761C10.0945 18.3148 10.4698 17.9395 10.931 17.9395C11.3923 17.9395 11.7676 18.3147 11.7676 18.776C11.7676 19.2373 11.3923 19.6126 10.931 19.6126Z" fill="#777777"/>
</g>
</g>
</svg>
