<svg width="32" height="35" viewBox="0 0 32 35" fill="none" xmlns="http://www.w3.org/2000/svg">
<path d="M25.3125 26.4844C25.3125 27.1316 24.7879 27.6562 24.1406 27.6562H22.9688V28.8281C22.9688 29.4754 22.4441 30 21.7969 30C21.1496 30 20.625 29.4754 20.625 28.8281V27.6562H19.4531C18.8059 27.6562 18.2812 27.1316 18.2812 26.4844C18.2812 25.8371 18.8059 25.3125 19.4531 25.3125H20.625V24.1406C20.625 23.4934 21.1496 22.9688 21.7969 22.9688C22.4441 22.9688 22.9688 23.4934 22.9688 24.1406V25.3125H24.1406C24.7879 25.3125 25.3125 25.8371 25.3125 26.4844ZM25.3125 8.20312V19.4531C25.3125 20.1004 24.7879 20.625 24.1406 20.625C23.4934 20.625 22.9688 20.1004 22.9688 19.4531V9.375H20.625V12.8906C20.625 13.5379 20.1004 14.0625 19.4531 14.0625C18.8059 14.0625 18.2812 13.5379 18.2812 12.8906V9.375H7.03125V12.8906C7.03125 13.5379 6.5066 14.0625 5.85938 14.0625C5.21215 14.0625 4.6875 13.5379 4.6875 12.8906V9.375H2.34375V27.6562H14.7656C15.4129 27.6562 15.9375 28.1809 15.9375 28.8281C15.9375 29.4754 15.4129 30 14.7656 30H1.17188C0.524648 30 0 29.4754 0 28.8281V8.20312C0 7.5559 0.524648 7.03125 1.17188 7.03125H4.74293C5.20846 3.07752 8.57947 0 12.6562 0C16.733 0 20.104 3.07752 20.5696 7.03125H24.1406C24.7879 7.03125 25.3125 7.5559 25.3125 8.20312ZM18.2027 7.03125C17.755 4.37432 15.4385 2.34375 12.6562 2.34375C9.87404 2.34375 7.55748 4.37432 7.10982 7.03125H18.2027Z" fill="#4D4C4C"/>
<circle cx="23" cy="26" r="9" fill="#F7793F"/>
<path d="M19.8277 30V29.244L22.8517 26.196C23.7157 25.332 24.1477 24.592 24.1477 23.976C24.1477 23.44 23.9797 23.024 23.6437 22.728C23.3157 22.424 22.9197 22.272 22.4557 22.272C21.5917 22.272 20.9637 22.668 20.5717 23.46L19.8637 23.04C20.1277 22.52 20.4877 22.128 20.9437 21.864C21.3997 21.592 21.9037 21.456 22.4557 21.456C23.1277 21.456 23.7157 21.684 24.2197 22.14C24.7317 22.588 24.9877 23.2 24.9877 23.976C24.9877 24.464 24.8517 24.932 24.5797 25.38C24.3077 25.828 23.9237 26.3 23.4277 26.796L21.0277 29.184H25.1677V30H19.8277Z" fill="white"/>
</svg>
