<svg width="24" height="25" viewBox="0 0 24 25" fill="none" xmlns="http://www.w3.org/2000/svg">
<path d="M17.4334 24.3715C16.5168 24.3647 15.6042 24.2496 14.7146 24.0287C11.6426 23.2875 8.4791 21.4072 5.80839 18.7342C3.13769 16.0611 1.25507 12.8971 0.513862 9.82794C-0.266606 6.59943 0.290034 3.83732 2.07949 2.04786L2.59043 1.53693C3.05399 1.07428 3.68217 0.814453 4.3371 0.814453C4.99203 0.814453 5.62021 1.07428 6.08378 1.53693L9.01992 4.47247C9.48284 4.93589 9.74287 5.56413 9.74287 6.21915C9.74287 6.87418 9.48284 7.50241 9.01992 7.96583L7.28554 9.69962C8.11699 11.1586 9.24785 12.6188 10.5844 13.9553C11.9209 15.2918 13.3822 16.4233 14.8406 17.2547L16.5744 15.5203C16.8038 15.2909 17.0761 15.1089 17.3758 14.9847C17.6755 14.8605 17.9967 14.7966 18.3211 14.7966C18.6455 14.7966 18.9667 14.8605 19.2664 14.9847C19.5661 15.1089 19.8384 15.2909 20.0678 15.5203L23.0033 18.4559C23.4663 18.9191 23.7265 19.5473 23.7265 20.2023C23.7265 20.8572 23.4663 21.4854 23.0033 21.9486L22.4918 22.4596C21.2303 23.7234 19.4842 24.3715 17.4334 24.3715ZM4.3371 2.57111C4.24355 2.57064 4.15085 2.58885 4.06442 2.62467C3.97799 2.66049 3.89958 2.71319 3.83378 2.7797L3.32226 3.29064C1.98222 4.63068 1.59082 6.80626 2.22011 9.4131C2.88632 12.1746 4.60136 15.044 7.04882 17.4908C9.49628 19.9377 12.365 21.651 15.1271 22.3195C17.7346 22.9488 19.909 22.5574 21.249 21.2174L21.76 20.7065C21.8934 20.5729 21.9684 20.3917 21.9684 20.2028C21.9684 20.014 21.8934 19.8328 21.76 19.6992L18.825 16.7637C18.6914 16.6302 18.5102 16.5552 18.3214 16.5552C18.1325 16.5552 17.9514 16.6302 17.8178 16.7637L15.6199 18.9615C15.488 19.0935 15.3176 19.18 15.1333 19.2087C14.9489 19.2374 14.7602 19.2066 14.5945 19.1209C12.7928 18.1893 10.9764 16.8328 9.3416 15.1981C7.70683 13.5633 6.35331 11.7481 5.41933 9.9463C5.33356 9.78065 5.30272 9.59201 5.33126 9.40767C5.35981 9.22333 5.44626 9.05286 5.57812 8.92091L7.77656 6.72306C7.91005 6.58946 7.98504 6.40831 7.98504 6.21945C7.98504 6.03058 7.91005 5.84944 7.77656 5.71583L4.84101 2.7797C4.775 2.71331 4.69647 2.66068 4.60997 2.62488C4.52347 2.58907 4.43072 2.57079 4.3371 2.57111Z" fill="#F7793F"/>
</svg>
