<svg width="29" height="20" viewBox="0 0 29 20" fill="none" xmlns="http://www.w3.org/2000/svg">
<path d="M26.4512 0.0976562H2.54883C1.14516 0.0976562 0 1.12323 0 2.38281V17.6172C0 18.8725 1.14006 19.9023 2.54883 19.9023H26.4512C27.8513 19.9023 29 18.8802 29 17.6172V2.38281C29 1.1275 27.8599 0.0976562 26.4512 0.0976562ZM26.0992 1.62109L14.554 11.972L2.90901 1.62109H26.0992ZM1.69922 17.3017V2.691L9.8826 9.96491L1.69922 17.3017ZM2.90074 18.3789L11.0893 11.0375L13.9585 13.5878C14.2907 13.883 14.8266 13.8821 15.1574 13.5855L17.9551 11.0772L26.0993 18.3789H2.90074ZM27.3008 17.3017L19.1566 10L27.3008 2.69827V17.3017Z" fill="#F7793F"/>
</svg>
