<svg width="20" height="30" viewBox="0 0 20 30" fill="none" xmlns="http://www.w3.org/2000/svg">
<path d="M10.1001 0.300781C4.1001 0.300781 0.100098 4.30078 0.100098 10.1008C0.100098 17.9008 7.3001 27.6008 9.2001 29.5008C9.3001 29.6008 9.5001 29.7008 9.7001 29.7008C9.9001 29.7008 10.1001 29.6008 10.2001 29.4008C11.2001 28.3008 19.8001 18.3008 19.8001 10.1008C19.9001 3.30078 15.0001 0.300781 10.1001 0.300781ZM9.7001 27.8008C7.4001 25.1008 1.6001 16.7008 1.6001 10.1008C1.6001 5.00078 4.9001 1.80078 10.1001 1.80078C13.9001 1.80078 18.4001 4.00078 18.4001 10.1008C18.4001 16.0008 13.2001 23.8008 9.7001 27.8008ZM10.0001 6.10078C7.8001 6.10078 6.0001 7.90078 6.0001 10.1008C6.0001 12.3008 7.8001 14.1008 10.0001 14.1008C12.2001 14.1008 14.0001 12.3008 14.0001 10.1008C14.0001 7.90078 12.2001 6.10078 10.0001 6.10078ZM10.0001 12.6008C8.6001 12.6008 7.5001 11.5008 7.5001 10.1008C7.5001 8.70078 8.6001 7.60078 10.0001 7.60078C11.4001 7.60078 12.5001 8.70078 12.5001 10.1008C12.5001 11.5008 11.4001 12.6008 10.0001 12.6008Z" fill="#F7793F"/>
</svg>
