<svg width="209" height="100" viewBox="0 0 209 100" fill="none" xmlns="http://www.w3.org/2000/svg">
<path d="M0 91.7276C0 89.2493 1.87459 87.3574 4.40471 87.3574C6.04354 87.3574 7.45236 88.197 8.05614 89.5023L7.37186 89.9048C6.88883 88.8525 5.75028 88.1625 4.41047 88.1625C2.38637 88.1625 0.862542 89.738 0.862542 91.7276C0.862542 93.723 2.38637 95.2928 4.41047 95.2928C5.76753 95.2928 6.87158 94.5913 7.42361 93.5505L8.12514 93.9702C7.45811 95.2583 6.04929 96.0978 4.40471 96.0978C1.87459 96.0978 0 94.206 0 91.7276Z" fill="black"/>
<path d="M16.6587 87.5429L13.0418 96.6858C12.4035 98.2959 11.1672 99.3827 9.72384 99.262V98.4742C10.8451 98.5719 11.7019 97.7381 12.2195 96.5133L12.4035 96.0591L8.55078 87.5371H9.45358L12.8347 94.9895L15.7501 87.5371H16.6587V87.5429Z" fill="black"/>
<path d="M24.7953 93.6018C24.7953 94.8726 23.9558 95.9134 22.2192 95.9134H18.1653V87.541H21.8972C23.536 87.541 24.3928 88.5128 24.3928 89.7376C24.3928 90.5599 24.0421 91.2442 23.3233 91.595C24.2951 91.9112 24.7953 92.6473 24.7953 93.6018ZM19.0048 88.3633V91.2614H21.903C22.9725 91.2614 23.5418 90.7267 23.5418 89.7894C23.5418 88.9038 22.9553 88.3633 21.903 88.3633H19.0048ZM23.9616 93.573C23.9616 92.653 23.3233 92.0837 22.2192 92.0837H19.0048V95.0969H22.2192C23.3405 95.0969 23.9616 94.5276 23.9616 93.573Z" fill="black"/>
<path d="M34.5592 91.7623C34.5592 91.8945 34.5419 92.0325 34.5419 92.1648H26.9573C27.1586 94.0566 28.5961 95.2987 30.5052 95.2987C31.8795 95.2987 32.9146 94.6604 33.4033 93.7749L34.1394 94.2119C33.4551 95.3504 32.144 96.1037 30.488 96.1037C27.9118 96.1037 26.0833 94.2636 26.0833 91.7335C26.0833 89.2724 27.8601 87.3633 30.419 87.3633C32.9663 87.3575 34.5592 89.4679 34.5592 91.7623ZM26.9573 91.3425H33.6909C33.5068 89.3011 32.0693 88.1626 30.4247 88.1626C28.5156 88.1626 27.1241 89.4852 26.9573 91.3425Z" fill="black"/>
<path d="M43.4319 87.541V95.9134H42.5751V92.1297H37.3481V95.9134H36.5085V87.541H37.3481V91.3247H42.5751V87.541H43.4319Z" fill="black"/>
<path d="M52.9254 87.541V95.9134H52.0686V88.9958L46.7438 95.9134H46.0078V87.541H46.8473V94.4586L52.1894 87.541H52.9254Z" fill="black"/>
<path d="M64.2823 91.7275C64.2823 94.2059 62.3387 96.0977 59.9465 96.0977C58.3192 96.0977 57.0312 95.2582 56.3469 93.9701V99.2604H55.5073V87.5356H56.3469V89.4792C57.0312 88.1911 58.325 87.3516 59.9465 87.3516C62.3387 87.3573 64.2823 89.2491 64.2823 91.7275ZM63.4427 91.7275C63.4427 89.7322 61.8844 88.1624 59.8948 88.1624C57.8994 88.1624 56.3469 89.7379 56.3469 91.7275C56.3469 93.7228 57.9052 95.2927 59.8948 95.2927C61.8844 95.2984 63.4427 93.7228 63.4427 91.7275Z" fill="black"/>
<path d="M72.3843 93.3545C72.3843 94.8956 71.1135 95.9191 69.6184 95.9191H66.3005V87.5468H67.1401V90.7957H69.6184C71.1078 90.7899 72.3843 91.8135 72.3843 93.3545ZM71.5275 93.3545C71.5275 92.285 70.6707 91.6122 69.6184 91.6122H67.1401V95.0968H69.6184C70.6765 95.0968 71.5275 94.4068 71.5275 93.3545ZM74.5119 87.541V95.9134H73.6724V87.541H74.5119Z" fill="black"/>
<path d="M88.4737 87.541V95.9134H87.6169V88.9958L82.2922 95.9134H81.5562V87.541H82.3957V94.4586L87.7377 87.541H88.4737Z" fill="black"/>
<path d="M102.441 95.9134H101.584V88.3633H96.3574V95.9134H95.5178V87.541H102.435V95.9134H102.441Z" fill="black"/>
<path d="M104.448 91.7276C104.448 89.2493 106.409 87.3574 108.853 87.3574C111.279 87.3574 113.24 89.2493 113.24 91.7276C113.24 94.206 111.279 96.0978 108.853 96.0978C106.409 96.0978 104.448 94.206 104.448 91.7276ZM112.383 91.7276C112.383 89.7323 110.842 88.1625 108.853 88.1625C106.857 88.1625 105.305 89.738 105.305 91.7276C105.305 93.723 106.863 95.2928 108.853 95.2928C110.842 95.2985 112.383 93.723 112.383 91.7276Z" fill="black"/>
<path d="M121.71 95.9134H120.871V88.3633H116.65V92.4C116.65 95.3326 115.408 96.0341 113.838 95.9191V95.1313C115.126 95.2463 115.816 94.5621 115.816 92.4V87.541H121.71V95.9134Z" fill="black"/>
<path d="M131.204 87.541V95.9134H130.347V88.9958L125.022 95.9134H124.286V87.541H125.126V94.4586L130.468 87.541H131.204Z" fill="black"/>
<path d="M139.024 88.3633H134.62V95.9134H133.78V87.541H139.024V88.3633Z" fill="black"/>
<path d="M149.289 91.7275C149.289 94.2059 147.345 96.0977 144.953 96.0977C143.331 96.0977 142.037 95.2582 141.353 93.9701V99.2604H140.514V87.5356H141.353V89.4792C142.037 88.1911 143.331 87.3516 144.953 87.3516C147.351 87.3573 149.289 89.2491 149.289 91.7275ZM148.455 91.7275C148.455 89.7322 146.896 88.1624 144.907 88.1624C142.912 88.1624 141.359 89.7379 141.359 91.7275C141.359 93.7228 142.917 95.2927 144.907 95.2927C146.896 95.2984 148.455 93.7228 148.455 91.7275Z" fill="black"/>
<path d="M159.535 87.5414V95.9138H158.679V94.022C157.977 95.2755 156.683 96.0978 155.079 96.0978C152.698 96.0978 150.743 94.206 150.743 91.7276C150.743 89.2493 152.704 87.3574 155.079 87.3574C156.689 87.3574 157.977 88.1797 158.679 89.4333V87.5414H159.535ZM158.684 91.7276C158.684 89.7323 157.143 88.1625 155.154 88.1625C153.158 88.1625 151.606 89.738 151.606 91.7276C151.606 93.723 153.164 95.2928 155.154 95.2928C157.143 95.2985 158.684 93.723 158.684 91.7276Z" fill="black"/>
<path d="M166.856 96.0984V99.261H166.016V96.0984C163.319 95.9316 161.542 94.0915 161.542 91.7282C161.542 89.3648 163.319 87.5247 166.016 87.358V84.1953H166.856V87.358C169.553 87.5247 171.329 89.3648 171.329 91.7282C171.324 94.0915 169.553 95.9316 166.856 96.0984ZM166.016 95.2818V88.1803C163.791 88.347 162.399 89.8191 162.399 91.7282C162.399 93.6373 163.791 95.1151 166.016 95.2818ZM170.473 91.7282C170.473 89.8191 169.081 88.347 166.856 88.1803V95.2818C169.081 95.1151 170.473 93.6373 170.473 91.7282Z" fill="black"/>
<path d="M180.248 87.541V95.9134H179.391V88.9958L174.067 95.9134H173.331V87.541H174.17V94.4586L179.512 87.541H180.248Z" fill="black"/>
<path d="M188.62 95.9153H187.781V92.6491H185.97L183.342 95.9153H182.255L184.934 92.6319C183.612 92.4824 182.542 91.5106 182.542 90.1017C182.542 88.5607 183.813 87.5371 185.308 87.5371H188.626V95.9153H188.62ZM187.787 91.8498V88.3652H185.308C184.256 88.3652 183.399 89.0494 183.399 90.1075C183.399 91.177 184.256 91.8498 185.308 91.8498H187.787Z" fill="black"/>
<path d="M26.1524 32.6732H19.6143V26.1352H6.53824V32.6732H0.0231934V13.0821C0.0231934 11.2765 0.362458 9.58017 1.04674 7.99309C1.73102 6.40602 2.66257 5.02021 3.83562 3.83565C5.01443 2.6511 6.39449 1.71955 7.98156 1.03527C9.56863 0.350984 11.265 0.0117188 13.0705 0.0117188C14.8761 0.0117188 16.5725 0.350984 18.1595 1.03527C19.7466 1.71955 21.1324 2.6511 22.317 3.83565C23.5015 5.02021 24.4331 6.40602 25.1173 7.99309C25.8016 9.58017 26.1409 11.2765 26.1409 13.0821V32.6732H26.1524ZM19.6143 19.6201V13.0821C19.6143 12.185 19.4418 11.3397 19.1026 10.5405C18.7633 9.74117 18.2918 9.04539 17.6995 8.45312C17.1072 7.86084 16.4114 7.39507 15.6122 7.05005C14.8129 6.71078 13.9676 6.53828 13.0705 6.53828C12.1735 6.53828 11.3282 6.71078 10.5289 7.05005C9.72964 7.38932 9.03386 7.86084 8.44158 8.45312C7.8493 9.04539 7.38353 9.74117 7.03852 10.5405C6.6935 11.3397 6.52674 12.185 6.52674 13.0821V19.6201H19.6143Z" fill="#4BC8F2"/>
<path d="M52.6208 32.6731H29.9819V0.00585938H36.52V26.1351H52.6208V32.6731Z" fill="#4BC8F2"/>
<path d="M78.6408 32.6731H56.2493V0.00585938H78.6408V6.54391H62.7873V13.082H73.5173V19.62H62.7873V26.1351H78.6408V32.6731Z" fill="#4BC8F2"/>
<path d="M108.6 32.673H100.67L94.385 22.127L88.077 32.673H80.1934L90.2161 16.3365L80.1934 0H88.077L94.385 10.546L100.67 0H108.6L98.5769 16.3365L108.6 32.673Z" fill="#4BC8F2"/>
<path d="M7.83205 76.3238H0.0231934V37.291H15.6467C17.0785 37.291 18.4585 37.475 19.7869 37.8488C21.1094 38.2226 22.3515 38.7458 23.5015 39.4301C24.6516 40.1086 25.7039 40.9252 26.6584 41.8797C27.613 42.8343 28.4295 43.8923 29.108 45.0481C29.7866 46.2097 30.3156 47.4517 30.6894 48.7743C31.0631 50.0969 31.2471 51.4769 31.2471 52.9087C31.2471 55.0478 30.8389 57.0662 30.0223 58.9638C29.2058 60.8613 28.0902 62.5174 26.6757 63.932C25.2611 65.3465 23.605 66.4621 21.7074 67.2786C19.8099 68.0952 17.7915 68.5034 15.6524 68.5034H7.84355V76.3238H7.83205ZM7.83205 45.1056V60.7291H15.6409C16.7105 60.7291 17.7168 60.5221 18.6598 60.1138C19.6028 59.7055 20.4309 59.1478 21.1382 58.4405C21.8455 57.7332 22.4032 56.9052 22.8115 55.9506C23.2198 54.9961 23.4268 53.984 23.4268 52.9145C23.4268 51.8449 23.2198 50.8329 22.8115 49.8783C22.4032 48.9238 21.8455 48.0958 21.1382 47.3885C20.4309 46.6812 19.6028 46.1234 18.6598 45.7151C17.7168 45.3069 16.7105 45.0999 15.6409 45.0999H7.83205V45.1056Z" fill="#F7793F"/>
<path d="M43.6275 76.3238H35.8186V37.291H51.4421C52.8739 37.291 54.254 37.475 55.5823 37.8488C56.9049 38.2226 58.1469 38.7458 59.297 39.4301C60.447 40.1086 61.4993 40.9252 62.4539 41.8797C63.4084 42.8343 64.2249 43.8923 64.9035 45.0481C65.582 46.2097 66.111 47.4517 66.4848 48.7743C66.8586 50.0969 67.0426 51.4769 67.0426 52.9087C67.0426 54.2543 66.8758 55.5596 66.5366 56.8304C66.203 58.1012 65.72 59.3088 65.0932 60.4531C64.4665 61.5974 63.7017 62.6497 62.7931 63.61C61.8846 64.5703 60.8668 65.4041 59.7455 66.1113L64.0754 76.3181H55.772L52.3679 68.4517L43.6332 68.5034V76.3238H43.6275ZM43.6275 45.1056V60.7291H51.4363C52.5059 60.7291 53.5122 60.5221 54.4552 60.1138C55.3983 59.7055 56.2263 59.1478 56.9336 58.4405C57.6409 57.7332 58.1987 56.9052 58.6069 55.9506C59.0152 54.9961 59.2222 53.984 59.2222 52.9145C59.2222 51.8449 59.0152 50.8329 58.6069 49.8783C58.1987 48.9238 57.6409 48.0958 56.9336 47.3885C56.2263 46.6812 55.3983 46.1234 54.4552 45.7151C53.5122 45.3069 52.5059 45.0999 51.4363 45.0999H43.6275V45.1056Z" fill="#F7793F"/>
<path d="M109.905 57.2139C109.905 59.0424 109.669 60.802 109.192 62.4984C108.715 64.1947 108.048 65.776 107.191 67.2596C106.328 68.7374 105.293 70.0887 104.074 71.3078C102.855 72.5268 101.51 73.5734 100.043 74.4417C98.5712 75.3099 96.9841 75.9827 95.282 76.46C93.58 76.9373 91.8146 77.173 89.986 77.173C88.1574 77.173 86.3979 76.9373 84.7015 76.46C83.0052 75.9827 81.4239 75.3157 79.9403 74.4417C78.4625 73.5734 77.1112 72.5268 75.8921 71.3078C74.6731 70.0887 73.6265 68.7374 72.7582 67.2596C71.8899 65.7818 71.2172 64.1947 70.7399 62.4984C70.2626 60.802 70.0269 59.0424 70.0269 57.2139C70.0269 55.3853 70.2626 53.6199 70.7399 51.9179C71.2172 50.2158 71.8842 48.6287 72.7582 47.1566C73.6265 45.6846 74.6731 44.3448 75.8921 43.1257C77.1112 41.9066 78.4625 40.8658 79.9403 40.009C81.4181 39.1465 83.0052 38.4795 84.7015 38.008C86.3979 37.5307 88.1574 37.2949 89.986 37.2949C91.8146 37.2949 93.58 37.5307 95.282 38.008C96.9841 38.4852 98.5712 39.1523 100.043 40.009C101.515 40.8716 102.855 41.9066 104.074 43.1257C105.293 44.3448 106.334 45.6903 107.191 47.1566C108.053 48.6287 108.72 50.2158 109.192 51.9179C109.663 53.6199 109.905 55.3853 109.905 57.2139ZM102.24 57.2139C102.24 55.529 101.918 53.9362 101.274 52.4411C100.63 50.9461 99.7557 49.6465 98.6517 48.5424C97.5476 47.4384 96.2481 46.5644 94.753 45.9203C93.2579 45.2763 91.6651 44.9543 89.9803 44.9543C88.2782 44.9543 86.6796 45.2763 85.1961 45.9203C83.7067 46.5644 82.4072 47.4384 81.2974 48.5424C80.1876 49.6465 79.3078 50.9461 78.6638 52.4411C78.0197 53.9362 77.6977 55.529 77.6977 57.2139C77.6977 58.8987 78.0197 60.48 78.6638 61.9578C79.3078 63.4356 80.1876 64.7294 81.2974 65.845C82.4072 66.9548 83.7067 67.8346 85.1961 68.4786C86.6854 69.1227 88.2782 69.4447 89.9803 69.4447C91.6651 69.4447 93.2579 69.1227 94.753 68.4786C96.2481 67.8346 97.5476 66.9548 98.6517 65.845C99.7557 64.7352 100.63 63.4414 101.274 61.9578C101.918 60.48 102.24 58.8987 102.24 57.2139Z" fill="#F7793F"/>
<path d="M152.192 76.322H144.516V48.8357C144.516 48.3009 144.412 47.8007 144.205 47.3349C143.998 46.8691 143.722 46.4608 143.372 46.1158C143.021 45.7651 142.618 45.4948 142.152 45.2993C141.687 45.1038 141.186 45.006 140.652 45.006C140.117 45.006 139.617 45.1038 139.151 45.2993C138.685 45.4948 138.277 45.7708 137.932 46.1158C137.581 46.4666 137.311 46.8749 137.115 47.3349C136.92 47.8007 136.822 48.3009 136.822 48.8357V76.322H129.117V48.8357C129.117 48.3009 129.019 47.8007 128.823 47.3349C128.628 46.8691 128.352 46.4608 128.007 46.1158C127.656 45.7651 127.254 45.4948 126.788 45.2993C126.322 45.1038 125.822 45.006 125.287 45.006C124.752 45.006 124.246 45.1038 123.786 45.2993C123.32 45.4948 122.912 45.7708 122.567 46.1158C122.216 46.4666 121.946 46.8749 121.751 47.3349C121.555 47.8007 121.457 48.3009 121.457 48.8357V76.322H113.752V48.8357C113.752 47.2429 114.051 45.7421 114.649 44.339C115.247 42.9359 116.069 41.7111 117.116 40.6588C118.162 39.6123 119.387 38.79 120.796 38.192C122.199 37.5939 123.7 37.2949 125.293 37.2949C126.725 37.2949 128.105 37.5479 129.427 38.0597C130.75 38.5715 131.94 39.3075 132.998 40.2736C134.056 39.3075 135.241 38.5715 136.557 38.0597C137.874 37.5479 139.249 37.2949 140.68 37.2949C142.273 37.2949 143.774 37.5939 145.177 38.192C146.58 38.79 147.805 39.6123 148.857 40.6588C149.904 41.7054 150.726 42.9302 151.324 44.339C151.922 45.7421 152.221 47.2429 152.221 48.8357V76.322H152.192Z" fill="#4BC8F2"/>
<path d="M195.929 57.2198C195.929 59.0484 195.693 60.808 195.216 62.5043C194.739 64.2006 194.072 65.782 193.215 67.2598C192.352 68.7376 191.317 70.0889 190.098 71.308C188.879 72.527 187.534 73.5678 186.067 74.4419C184.595 75.3102 183.014 75.9829 181.312 76.4602C179.61 76.9375 177.845 77.1732 176.016 77.1732C174.187 77.1732 172.428 76.9375 170.731 76.4602C169.041 75.9829 167.454 75.3159 165.976 74.4419C164.498 73.5736 163.147 72.527 161.928 71.308C160.709 70.0889 159.662 68.7434 158.794 67.2598C157.926 65.782 157.253 64.1949 156.776 62.5043C156.298 60.8137 156.062 59.0484 156.062 57.2198C156.062 55.3912 156.298 53.6259 156.776 51.9238C157.253 50.2217 157.92 48.6347 158.794 47.1683C159.662 45.6963 160.709 44.3565 161.928 43.1374C163.147 41.9183 164.492 40.8776 165.976 40.0208C167.454 39.1582 169.041 38.4912 170.731 38.0197C172.422 37.5424 174.187 37.3066 176.016 37.3066C177.845 37.3066 179.61 37.5424 181.312 38.0197C183.014 38.4969 184.601 39.164 186.067 40.0208C187.534 40.8833 188.879 41.9183 190.098 43.1374C191.317 44.3565 192.358 45.702 193.215 47.1683C194.078 48.6404 194.745 50.2217 195.216 51.9238C195.688 53.6259 195.929 55.3912 195.929 57.2198ZM188.264 57.2198C188.264 55.535 187.942 53.9422 187.298 52.4471C186.654 50.952 185.78 49.6525 184.676 48.5484C183.572 47.4444 182.272 46.5703 180.777 45.9263C179.282 45.2823 177.689 44.9602 176.004 44.9602C174.302 44.9602 172.704 45.2823 171.22 45.9263C169.731 46.5703 168.431 47.4444 167.322 48.5484C166.212 49.6525 165.332 50.952 164.688 52.4471C164.044 53.9422 163.722 55.535 163.722 57.2198C163.722 58.9046 164.044 60.486 164.688 61.9638C165.332 63.4416 166.212 64.7354 167.322 65.851C168.431 66.9608 169.731 67.8406 171.22 68.4846C172.71 69.1286 174.302 69.4506 176.004 69.4506C177.689 69.4506 179.282 69.1286 180.777 68.4846C182.272 67.8406 183.572 66.9608 184.676 65.851C185.78 64.7412 186.654 63.4473 187.298 61.9638C187.942 60.486 188.264 58.9046 188.264 57.2198Z" fill="#4BC8F2"/>
<path d="M200.604 98.536C204.713 98.536 208.045 95.2046 208.045 91.0952C208.045 86.9857 204.713 83.6543 200.604 83.6543C196.494 83.6543 193.163 86.9857 193.163 91.0952C193.163 95.2046 196.494 98.536 200.604 98.536Z" fill="#F7793F"/>
</svg>
